<?xml version="1.0" encoding="UTF-8"?>
<!-- Svg Vector Icons : http://www.onlinewebfonts.com/icon -->
<!DOCTYPE svg PUBLIC "-//W3C//DTD SVG 1.1//EN" "http://www.w3.org/Graphics/SVG/1.1/DTD/svg11.dtd">
<svg version="1.1" xmlns="http://www.w3.org/2000/svg" xmlns:xlink="http://www.w3.org/1999/xlink" x="0px" y="0px" viewBox="0 0 1000 1000" enable-background="new 0 0 1000 1000" xml:space="preserve">
<metadata> Svg Vector Icons : http://www.onlinewebfonts.com/icon </metadata>
<g><path d="M894.5,442c-46.2-128-158.9-226.3-299-257.6c35.9-51.5,95.4-85.4,162.9-85.4c109.8,0,198.8,89,198.8,198.7C957.1,354.8,932.9,405.8,894.5,442L894.5,442L894.5,442z M512.2,106.5v125c190.7,7.8,343,164.4,343,357c0,80.4-26.9,154.4-71.6,214.1l82.9,143.6l-68.9,39.7l-70.9-122.9c-62.1,51.9-142,83.2-229.2,83.2c-86.7,0-166.2-30.9-228.2-82.3l-72.8,126l-68.8-39.7l84.6-146.5c-45.3-59.9-72.5-134.4-72.5-215.3c0-191.3,150.3-347.1,339.2-356.8V106.5c-19.3-6.9-33.3-24.9-33.3-46.5c0-27.6,22.4-49.9,49.9-49.9c27.6,0,49.9,22.4,49.9,49.9C545.6,81.6,531.5,99.6,512.2,106.5L512.2,106.5L512.2,106.5z M219.3,588.5c0,153.7,124.6,278.2,278.2,278.2c153.7,0,278.2-124.5,278.2-278.2c0-153.7-124.6-278.2-278.2-278.2C343.9,310.3,219.3,434.8,219.3,588.5L219.3,588.5L219.3,588.5z M581,648.6h-99.9c-18.4,0-33.3-14.9-33.3-33.3V482.2c0-18.4,14.9-33.3,33.3-33.3c18.4,0,33.3,14.9,33.3,33.3v99.9H581c18.4,0,33.3,14.9,33.3,33.3C614.2,633.7,599.3,648.6,581,648.6L581,648.6L581,648.6z M105.6,442c-38.4-36.2-62.7-87.3-62.7-144.2c0-109.8,89-198.7,198.8-198.7c67.5,0,127,33.9,162.9,85.4C264.5,215.7,151.8,314,105.6,442L105.6,442L105.6,442z"/></g>
</svg>